<?xml version="1.0" encoding="UTF-8" standalone="no"?>
<svg xmlns="http://www.w3.org/2000/svg" width="419px" height="68px" viewBox="0 0 419 68" version="1.1">
  <g fill="white" stroke="none" transform="scale(1,1)">
    <path d="M 183 14 L 173 19 L 173 20 L 170 23 L 168 27 L 168 31 L 167 32 L 167 37 L 168 38 L 168 42 L 170 46 L 176 52 L 180 54 L 184 54 L 185 55 L 191 55 L 192 54 L 197 53 L 199 51 L 200 51 L 207 43 L 207 39 L 205 39 L 202 45 L 194 51 L 191 51 L 190 52 L 184 52 L 183 51 L 181 51 L 174 46 L 170 38 L 170 31 L 171 30 L 171 28 L 173 24 L 178 19 L 180 18 L 182 18 L 183 17 L 192 17 L 198 20 L 202 24 L 203 27 L 206 30 L 208 28 L 206 24 L 204 22 L 204 21 L 198 16 L 196 16 L 192 14 Z" />
    <path d="M 294 15 L 294 54 L 296 54 L 296 19 L 298 17 L 309 17 L 310 18 L 312 18 L 314 19 L 318 23 L 319 25 L 319 29 L 316 34 L 319 40 L 319 43 L 318 44 L 318 46 L 313 51 L 303 51 L 301 52 L 302 54 L 313 54 L 317 52 L 321 47 L 321 45 L 322 44 L 322 40 L 320 36 L 320 33 L 321 32 L 322 25 L 321 24 L 321 22 L 320 20 L 316 16 L 314 15 Z" />
    <path d="M 99 28 L 98 29 L 98 53 L 99 54 L 100 54 L 101 53 L 101 38 L 102 37 L 105 40 L 105 41 L 109 46 L 111 46 L 113 44 L 113 43 L 116 40 L 116 39 L 118 37 L 119 37 L 120 38 L 120 54 L 122 54 L 122 53 L 123 52 L 123 30 L 122 29 L 122 28 L 121 28 L 117 32 L 117 33 L 114 36 L 114 37 L 110 42 L 108 40 L 108 39 L 106 37 L 106 36 L 104 34 L 104 33 L 101 30 L 101 29 L 100 28 Z" />
    <path d="M 270 14 L 268 17 L 268 19 L 267 20 L 267 22 L 264 27 L 264 29 L 263 30 L 263 31 L 262 32 L 262 34 L 260 37 L 260 39 L 259 40 L 259 42 L 256 47 L 256 49 L 255 50 L 255 53 L 256 54 L 258 52 L 258 51 L 259 50 L 259 48 L 261 45 L 261 43 L 263 40 L 263 38 L 265 35 L 265 33 L 266 32 L 266 30 L 268 27 L 268 25 L 269 24 L 269 23 L 271 21 L 274 26 L 274 28 L 276 31 L 276 33 L 278 36 L 278 38 L 280 41 L 280 43 L 282 46 L 282 48 L 283 49 L 284 52 L 286 54 L 287 53 L 287 51 L 286 50 L 286 48 L 285 47 L 285 45 L 283 42 L 283 40 L 281 37 L 281 35 L 279 32 L 279 30 L 277 27 L 277 25 L 275 22 L 275 20 L 274 19 L 274 18 L 273 17 L 272 14 Z" />
    <path d="M 341 14 L 341 15 L 339 18 L 339 21 L 338 22 L 338 23 L 335 28 L 335 30 L 334 31 L 334 32 L 333 33 L 333 35 L 331 38 L 331 41 L 330 42 L 330 43 L 327 48 L 327 50 L 326 51 L 326 53 L 327 53 L 328 54 L 329 53 L 329 52 L 330 51 L 330 49 L 332 46 L 332 44 L 334 41 L 334 39 L 336 36 L 336 34 L 338 31 L 338 29 L 340 26 L 340 24 L 342 21 L 344 23 L 344 24 L 347 29 L 347 32 L 349 35 L 349 37 L 351 40 L 351 42 L 353 45 L 353 47 L 355 50 L 355 52 L 356 53 L 358 53 L 358 49 L 355 44 L 355 42 L 354 41 L 354 39 L 352 36 L 352 34 L 350 31 L 350 29 L 347 24 L 347 22 L 346 21 L 346 19 L 345 18 L 344 15 L 343 14 Z" />
    <path d="M 384 23 L 381 23 L 380 22 L 375 22 L 374 23 L 373 23 L 371 25 L 371 28 L 375 32 L 376 32 L 377 33 L 378 33 L 379 34 L 380 34 L 381 35 L 382 35 L 384 37 L 384 38 L 386 41 L 386 43 L 385 44 L 385 46 L 384 47 L 384 48 L 383 49 L 382 49 L 380 51 L 377 51 L 376 52 L 374 52 L 373 51 L 369 51 L 366 49 L 364 49 L 363 50 L 366 53 L 368 53 L 369 54 L 380 54 L 381 53 L 382 53 L 383 52 L 384 52 L 387 49 L 387 48 L 388 47 L 388 44 L 389 43 L 389 41 L 388 40 L 388 38 L 387 37 L 387 36 L 383 32 L 382 32 L 381 31 L 380 31 L 379 30 L 378 30 L 377 29 L 376 29 L 374 27 L 374 26 L 375 25 L 380 25 L 381 26 L 384 26 L 385 25 L 385 24 Z" />
    <path d="M 383 15 L 372 15 L 371 16 L 370 16 L 369 17 L 368 17 L 366 19 L 366 20 L 364 22 L 364 31 L 366 33 L 366 34 L 368 36 L 369 36 L 371 38 L 372 38 L 373 39 L 375 39 L 378 41 L 378 43 L 377 44 L 371 44 L 370 43 L 369 43 L 366 41 L 364 43 L 366 45 L 367 45 L 368 46 L 370 46 L 371 47 L 377 47 L 378 46 L 379 46 L 381 44 L 381 40 L 378 37 L 376 37 L 375 36 L 374 36 L 373 35 L 372 35 L 367 30 L 367 23 L 369 21 L 369 20 L 370 19 L 371 19 L 374 17 L 379 17 L 380 18 L 382 18 L 383 19 L 385 19 L 386 18 L 386 17 Z" />
    <path d="M 187 21 L 186 22 L 184 22 L 183 23 L 181 23 L 177 27 L 177 30 L 179 30 L 179 29 L 182 26 L 183 26 L 184 25 L 186 25 L 187 24 L 188 24 L 189 25 L 191 25 L 192 26 L 193 26 L 196 29 L 196 30 L 197 31 L 197 38 L 195 40 L 195 41 L 194 42 L 193 42 L 191 44 L 185 44 L 184 43 L 183 43 L 179 39 L 177 39 L 177 41 L 178 42 L 178 43 L 179 44 L 180 44 L 182 46 L 183 46 L 184 47 L 191 47 L 192 46 L 194 46 L 199 41 L 199 40 L 200 39 L 200 30 L 199 29 L 199 28 L 198 27 L 198 26 L 196 24 L 195 24 L 194 23 L 193 23 L 192 22 L 189 22 L 188 21 Z" />
    <path d="M 35 15 L 35 17 L 36 18 L 36 19 L 38 21 L 38 22 L 40 24 L 40 25 L 43 28 L 43 29 L 45 31 L 45 32 L 47 34 L 47 35 L 50 38 L 50 39 L 51 40 L 53 40 L 54 39 L 54 16 L 53 15 L 51 15 L 51 31 L 50 32 L 49 32 L 48 31 L 48 30 L 46 28 L 46 27 L 44 25 L 44 24 L 41 21 L 41 20 L 39 18 L 39 17 L 37 15 Z" />
    <path d="M 36 29 L 35 30 L 35 52 L 36 53 L 36 54 L 38 54 L 38 38 L 39 37 L 40 37 L 41 38 L 41 39 L 43 41 L 43 42 L 45 44 L 45 45 L 48 48 L 48 49 L 50 51 L 50 52 L 52 54 L 54 54 L 54 52 L 53 51 L 53 50 L 51 48 L 51 47 L 49 45 L 49 44 L 46 41 L 46 40 L 44 38 L 44 37 L 42 35 L 42 34 L 39 31 L 39 30 L 38 29 Z" />
    <path d="M 223 15 L 222 16 L 223 17 L 223 18 L 225 20 L 225 21 L 227 23 L 227 24 L 229 26 L 229 27 L 232 30 L 232 31 L 234 33 L 234 34 L 236 36 L 236 37 L 239 40 L 241 40 L 241 15 L 239 15 L 238 16 L 238 31 L 237 32 L 235 30 L 235 29 L 233 27 L 233 26 L 230 23 L 230 22 L 228 20 L 228 19 L 226 17 L 226 16 L 225 15 Z" />
    <path d="M 224 29 L 223 30 L 223 53 L 224 54 L 225 54 L 226 53 L 226 38 L 227 37 L 230 40 L 230 41 L 232 43 L 232 44 L 234 46 L 234 47 L 237 50 L 237 51 L 240 54 L 241 54 L 242 53 L 241 52 L 241 51 L 240 50 L 240 49 L 238 47 L 238 46 L 235 43 L 235 42 L 233 40 L 233 39 L 231 37 L 231 36 L 228 33 L 228 32 L 226 30 L 226 29 Z" />
    <path d="M 161 15 L 140 15 L 140 54 L 142 54 L 142 19 L 143 18 L 159 18 L 160 17 L 161 17 Z" />
    <path d="M 97 15 L 97 16 L 98 17 L 98 18 L 100 20 L 100 21 L 102 23 L 102 24 L 105 27 L 105 28 L 107 30 L 107 31 L 109 33 L 111 33 L 113 31 L 113 30 L 116 27 L 116 26 L 118 24 L 118 23 L 120 21 L 120 20 L 123 17 L 123 15 L 122 14 L 121 14 L 119 16 L 119 17 L 117 19 L 117 20 L 114 23 L 114 24 L 112 26 L 112 27 L 110 29 L 108 27 L 108 26 L 106 24 L 106 23 L 103 20 L 103 19 L 101 17 L 101 16 L 99 14 L 98 14 Z" />
    <path d="M 128 14 L 127 15 L 127 53 L 128 54 L 129 54 L 130 53 L 130 15 L 129 14 Z" />
    <path d="M 91 14 L 90 15 L 90 52 L 91 53 L 91 54 L 92 54 L 93 53 L 93 15 L 92 14 Z" />
    <path d="M 78 15 L 78 53 L 79 54 L 80 54 L 81 53 L 81 16 L 80 15 Z" />
    <path d="M 11 15 L 9 15 L 8 16 L 8 53 L 9 54 L 10 54 L 11 53 Z" />
    <path d="M 397 15 L 396 16 L 396 53 L 397 54 L 398 54 L 399 53 L 399 16 L 398 15 Z" />
    <path d="M 71 15 L 70 16 L 70 53 L 71 53 L 72 54 L 73 54 L 73 15 Z" />
    <path d="M 59 15 L 58 16 L 58 53 L 59 54 L 60 54 L 61 53 L 61 16 L 60 15 Z" />
    <path d="M 29 15 L 28 16 L 28 53 L 29 54 L 30 54 L 31 53 L 31 16 L 30 15 Z" />
    <path d="M 406 15 L 404 15 L 403 16 L 403 52 L 404 53 L 404 54 L 405 54 L 406 53 Z" />
    <path d="M 216 15 L 216 53 L 217 54 L 218 54 L 218 53 L 219 52 L 219 16 L 218 15 Z" />
    <path d="M 16 15 L 16 53 L 17 54 L 18 54 L 18 53 L 19 52 L 19 16 L 18 15 Z" />
    <path d="M 148 22 L 147 23 L 147 31 L 148 32 L 157 32 L 158 31 L 158 30 L 157 29 L 151 29 L 150 28 L 150 26 L 151 25 L 160 25 L 161 24 L 161 22 Z" />
    <path d="M 246 15 L 246 53 L 247 54 L 248 54 L 248 15 Z" />
    <path d="M 157 37 L 147 37 L 147 53 L 148 54 L 149 54 L 150 53 L 150 41 L 151 40 L 156 40 L 158 38 Z" />
    <path d="M 301 23 L 301 24 L 302 25 L 309 25 L 311 27 L 311 28 L 310 29 L 307 29 L 306 30 L 306 32 L 311 32 L 314 29 L 314 25 L 311 22 L 302 22 Z" />
    <path d="M 301 38 L 302 39 L 304 39 L 305 40 L 310 40 L 311 41 L 311 42 L 309 44 L 306 44 L 305 45 L 307 47 L 310 47 L 311 46 L 312 46 L 313 45 L 313 44 L 314 43 L 314 40 L 313 39 L 313 38 L 312 38 L 311 37 L 302 37 Z" />
    <path d="M 263 50 L 263 53 L 264 54 L 267 51 L 275 51 L 278 54 L 279 53 L 279 50 L 278 49 L 278 48 L 264 48 L 264 49 Z" />
    <path d="M 334 52 L 334 53 L 337 53 L 337 52 L 338 51 L 346 51 L 348 53 L 350 53 L 350 49 L 349 48 L 336 48 L 335 49 L 335 51 Z" />
  </g>
</svg>
